<?xml version="1.0" encoding="UTF-8"?><svg xmlns="http://www.w3.org/2000/svg" viewBox="0 0 512 145"><defs><style>.d{fill:#f4e710;}.e{fill:#daeff6;}.f{fill:#4a2682;}.g{fill:#ec671b;}</style></defs><g id="a"/><g id="b"><g id="c"><rect class="f" x="6" y="114" width="417" height="30" rx="10.9" ry="10.9"/><path class="g" d="M330,58.5h128.22c23.33,0,42.28,18.94,42.28,42.28v43.72h-170.5V58.5h0Z"/><rect class="g" x="485" y="120" width="27" height="25" rx="12.5" ry="12.5"/><path class="g" d="M330,0h72.77C423.32,0,440,16.68,440,37.23v21.77h-110V0h0Z"/><path class="d" d="M495,102h3.49c5.25,0,9.51,4.26,9.51,9.51h0c0,4.69-3.8,8.49-8.49,8.49h-4.51v-18h0Z"/><path class="d" d="M0,119H3.49c5.25,0,9.51,4.26,9.51,9.51h0c0,4.69-3.8,8.49-8.49,8.49H0v-18H0Z" transform="translate(13 256) rotate(-180)"/><path class="f" d="M344,20h18.49c14.63,0,26.51,11.88,26.51,26.51V114h-45V20h0Z"/><path class="e" d="M402,0h0C424.63,0,443,18.37,443,41v17h-41V0h0Z"/></g></g></svg>